<svg width="20" height="20" viewBox="0 0 20 20" fill="none" xmlns="http://www.w3.org/2000/svg">
<g id="instagram">
<path id="Vector" d="M14.1667 1.66663H5.83335C3.53217 1.66663 1.66669 3.53211 1.66669 5.83329V14.1666C1.66669 16.4678 3.53217 18.3333 5.83335 18.3333H14.1667C16.4679 18.3333 18.3334 16.4678 18.3334 14.1666V5.83329C18.3334 3.53211 16.4679 1.66663 14.1667 1.66663Z" stroke="#266294" stroke-linecap="round" stroke-linejoin="round"/>
<path id="Vector_2" d="M13.3334 9.47525C13.4362 10.1688 13.3178 10.8771 12.9948 11.4994C12.6719 12.1218 12.161 12.6264 11.5347 12.9416C10.9085 13.2569 10.1987 13.3666 9.50653 13.2552C8.81431 13.1438 8.17484 12.817 7.67907 12.3212C7.1833 11.8255 6.85648 11.186 6.7451 10.4938C6.63371 9.80154 6.74343 9.09183 7.05865 8.46556C7.37386 7.8393 7.87853 7.32837 8.50086 7.00545C9.12319 6.68254 9.8315 6.56407 10.525 6.66692C11.2325 6.77182 11.8874 7.10147 12.3931 7.60717C12.8988 8.11288 13.2285 8.76782 13.3334 9.47525Z" stroke="#266294" stroke-linecap="round" stroke-linejoin="round"/>
<path id="Vector_3" d="M14.5833 5.41663H14.5916" stroke="#266294" stroke-linecap="round" stroke-linejoin="round"/>
</g>
</svg>
