<svg width="18" height="12" viewBox="0 0 18 12" fill="none" xmlns="http://www.w3.org/2000/svg">
<g id="Mobile Signal">
<path d="M9.5658 2.88462C9.5658 2.35357 9.99408 1.92308 10.5224 1.92308H11.479C12.0073 1.92308 12.4355 2.35357 12.4355 2.88462V10.5769C12.4355 11.108 12.0073 11.5385 11.479 11.5385H10.5224C9.99408 11.5385 9.5658 11.108 9.5658 10.5769V2.88462Z" fill="#111111"/>
<path d="M14.3487 0.961538C14.3487 0.430495 14.777 0 15.3053 0H16.2619C16.7902 0 17.2184 0.430495 17.2184 0.961538V10.5769C17.2184 11.108 16.7902 11.5385 16.2619 11.5385H15.3053C14.777 11.5385 14.3487 11.108 14.3487 10.5769V0.961538Z" fill="#111111"/>
<path d="M4.7829 6.25C4.7829 5.71896 5.21118 5.28846 5.73948 5.28846H6.69606C7.22436 5.28846 7.65264 5.71896 7.65264 6.25V10.5769C7.65264 11.108 7.22436 11.5385 6.69606 11.5385H5.73948C5.21118 11.5385 4.7829 11.108 4.7829 10.5769V6.25Z" fill="#111111"/>
<path d="M0 8.65385C0 8.1228 0.428275 7.69231 0.95658 7.69231H1.91316C2.44146 7.69231 2.86974 8.1228 2.86974 8.65385V10.5769C2.86974 11.108 2.44146 11.5385 1.91316 11.5385H0.95658C0.428275 11.5385 0 11.108 0 10.5769V8.65385Z" fill="#111111"/>
</g>
</svg>
