<svg width="20" height="20" viewBox="0 0 20 20" fill="none" xmlns="http://www.w3.org/2000/svg">
<g id="twitter">
<path id="Vector" d="M19.1666 2.5002C18.3686 3.0631 17.4851 3.49363 16.55 3.7752C16.0481 3.19813 15.3811 2.78911 14.6392 2.60347C13.8973 2.41783 13.1162 2.46453 12.4017 2.73725C11.6872 3.00996 11.0737 3.49554 10.6441 4.1283C10.2146 4.76106 9.98973 5.51048 9.99998 6.2752V7.10853C8.53551 7.14651 7.08437 6.82171 5.77582 6.16307C4.46727 5.50443 3.34191 4.5324 2.49998 3.33353C2.49998 3.33353 -0.833354 10.8335 6.66665 14.1669C4.95042 15.3318 2.90594 15.916 0.833313 15.8335C8.33331 20.0002 17.5 15.8335 17.5 6.2502C17.4992 6.01808 17.4769 5.78653 17.4333 5.55853C18.2838 4.71978 18.884 3.6608 19.1666 2.5002Z" stroke="#266294" stroke-linecap="round" stroke-linejoin="round"/>
</g>
</svg>
