<svg width="20" height="20" viewBox="0 0 20 20" fill="none" xmlns="http://www.w3.org/2000/svg">
<g id="youtube">
<path id="Vector" d="M18.7834 5.35004C18.6844 4.95455 18.4828 4.59218 18.1989 4.29955C17.915 4.00691 17.559 3.79436 17.1667 3.68337C15.7334 3.33337 10 3.33337 10 3.33337C10 3.33337 4.2667 3.33337 2.83336 3.71671C2.44107 3.82769 2.08501 4.04024 1.80115 4.33288C1.51729 4.62552 1.31569 4.98788 1.2167 5.38337C0.954374 6.838 0.826059 8.31363 0.833362 9.79171C0.824012 11.2809 0.952335 12.7678 1.2167 14.2334C1.32583 14.6166 1.53195 14.9652 1.81515 15.2454C2.09835 15.5257 2.44905 15.7282 2.83336 15.8334C4.2667 16.2167 10 16.2167 10 16.2167C10 16.2167 15.7334 16.2167 17.1667 15.8334C17.559 15.7224 17.915 15.5098 18.1989 15.2172C18.4828 14.9246 18.6844 14.5622 18.7834 14.1667C19.0437 12.723 19.172 11.2587 19.1667 9.79171C19.176 8.3025 19.0477 6.81562 18.7834 5.35004Z" stroke="#266294" stroke-linecap="round" stroke-linejoin="round"/>
<path id="Vector_2" d="M8.125 12.517L12.9167 9.79202L8.125 7.06702V12.517Z" stroke="#266294" stroke-linecap="round" stroke-linejoin="round"/>
</g>
</svg>
