<svg width="18" height="12" viewBox="0 0 18 12" fill="none" xmlns="http://www.w3.org/2000/svg">
<path id="Wifi" fill-rule="evenodd" clip-rule="evenodd" d="M9.01785 2.48801C11.3773 2.48811 13.6465 3.41832 15.3565 5.08636C15.4853 5.21514 15.6911 5.21352 15.818 5.08272L17.0488 3.80813C17.1131 3.74179 17.1489 3.65192 17.1483 3.55843C17.1478 3.46493 17.111 3.3755 17.046 3.30994C12.5578 -1.10331 5.47718 -1.10331 0.988985 3.30994C0.92397 3.37546 0.887082 3.46485 0.886482 3.55835C0.885883 3.65185 0.921621 3.74174 0.98579 3.80813L2.21704 5.08272C2.34378 5.21372 2.54976 5.21534 2.67845 5.08636C4.38866 3.41821 6.65816 2.488 9.01785 2.48801ZM9.05213 6.33597C10.3485 6.33589 11.5986 6.83029 12.5596 7.7231C12.6895 7.84981 12.8943 7.84706 13.021 7.71691L14.2504 6.44231C14.3152 6.37546 14.3511 6.28476 14.3502 6.19051C14.3492 6.09627 14.3115 6.00634 14.2455 5.94085C11.3192 3.14797 6.78754 3.14797 3.86129 5.94085C3.79519 6.00634 3.75747 6.09631 3.75661 6.19059C3.75574 6.28487 3.79179 6.37555 3.85667 6.44231L5.08579 7.71691C5.21249 7.84706 5.41723 7.84981 5.5472 7.7231C6.50751 6.83088 7.75662 6.33653 9.05213 6.33597ZM11.5519 8.82384C11.5538 8.91835 11.5176 9.00947 11.4518 9.07568L9.3251 11.2778C9.26276 11.3425 9.17776 11.379 9.08907 11.379C9.00039 11.379 8.91539 11.3425 8.85305 11.2778L6.72595 9.07568C6.66024 9.00942 6.62409 8.91827 6.62604 8.82376C6.62799 8.72925 6.66786 8.63976 6.73624 8.5764C8.09446 7.39771 10.0837 7.39771 11.4419 8.5764C11.5102 8.63981 11.55 8.72933 11.5519 8.82384Z" fill="#111111"/>
</svg>
